<svg width="949" height="256" xmlns="http://www.w3.org/2000/svg">

 <g>
  <title>background</title>
  <rect fill="none" id="canvas_background" height="402" width="582" y="-1" x="-1"/>
 </g>
 <g>
  <title>Layer 1</title>
  <path stroke="#000" id="svg_6" d="m218.181976,120.268346c-8.367513,-1.647056 -17.076416,-2.731503 -24.148045,-3.025038l-1.247115,-0.048922c0.285652,-0.733837 0.501633,-1.231215 0.571304,-1.304598c0.153277,-0.146767 0.278685,-0.766452 0.292619,-1.369828c0,-0.334303 0.125408,-1.418751 0.320488,-2.853809c1.915959,0.081537 4.458958,0.146767 7.231873,0.171229c10.708466,0.097845 21.911598,1.108909 29.596334,2.698888c4.577399,0.945834 6.089265,0.913219 2.71021,-0.048922c-3.420857,-0.970295 -13.564986,-2.3972 -21.646848,-3.016884c-5.427388,-0.432148 -13.209663,-0.595223 -17.794029,-0.505532c0.132375,-0.929526 0.285652,-1.965051 0.445896,-3.025038c0.647942,-4.101331 0.863923,-8.227124 0.877857,-16.437941c0.013934,-12.736143 -0.571304,-16.242251 -4.117569,-24.665065c-1.442194,-3.440878 -3.072501,-6.359918 -5.044196,-9.001729c1.720879,-5.944077 1.679076,-15.14965 -0.104507,-23.221853c-1.470063,-6.620837 -1.98563,-7.044832 -7.113431,-5.772848c-4.347484,1.084447 -7.831045,2.560274 -12.29697,5.193933c-2.111038,1.247522 -5.023295,3.188113 -7.134333,4.712862c-5.504026,-2.26674 -11.196165,-3.767028 -17.271495,-4.574248c-6.158936,-0.815374 -21.256689,-0.358765 -26.614406,0.799067c-5.239276,1.13337 -9.956017,2.519506 -14.226863,4.166561c-2.131939,-1.541057 -5.225341,-3.620261 -7.433919,-4.924859c-4.486827,-2.641812 -7.970387,-4.109485 -12.331806,-5.193933c-5.113867,-1.280137 -5.643369,-0.847989 -7.106464,5.772848c-1.811452,8.178202 -1.825386,17.538696 -0.034836,23.466465c0.209014,0.67676 0.334422,1.157831 0.383192,1.532903c-7.259741,10.697707 -9.628562,22.667398 -8.053993,39.374412c0.41106,4.354097 1.045068,8.34943 1.929893,12.01046c-4.633136,-0.032615 -11.224033,0.163075 -15.982578,0.521839c-8.095796,0.627838 -18.239925,2.038435 -21.660782,3.00873c-3.372087,0.962141 -1.874156,0.994756 2.71021,0.057076c7.684735,-1.581826 18.894835,-2.609197 29.596334,-2.698888c2.020465,-0.008154 3.908555,-0.057076 5.531895,-0.105999c0.487699,1.932436 1.045068,3.775182 1.679076,5.528236l-0.04877,0.008154c-7.071629,0.285381 -15.773564,1.369828 -24.141077,3.016884c-6.277377,1.231215 -15.543649,3.693644 -16.623553,4.40302c-1.135641,0.74199 -0.209014,0.578916 4.654037,-0.864296c8.869146,-2.625504 20.399733,-4.639478 34.682333,-6.041922l1.595471,-0.163075c3.065534,8.333123 7.789242,14.69304 14.463745,19.650514c4.082733,3.041345 10.624861,6.164228 13.92031,6.653452c0.905726,0.13046 3.539298,0.766452 5.852382,1.402443c2.320052,0.635992 6.855648,1.589979 10.074458,2.13628l0.076638,0c-0.062704,0.048922 -0.118441,0.081537 -0.174178,0.13046c-3.901588,2.372738 -6.437621,6.066383 -8.144566,11.88c-0.766383,0.269073 -1.720879,0.635992 -2.752013,1.051833c-3.685607,1.467673 -5.120835,1.769362 -8.855212,1.801977c-3.87372,0.032615 -4.79338,-0.163075 -7.106464,-1.435058c-3.36512,-1.834592 -6.500325,-5.21024 -8.590461,-9.238188c-3.490528,-6.73499 -9.524056,-11.496774 -14.554318,-11.496774c-4.298714,0 -5.113867,2.038435 -2.006531,5.01455c4.681906,4.476403 8.179401,9.042498 9.614628,12.532299c0.808186,1.956898 2.048334,4.981935 2.765947,6.718682c0.759416,1.850899 2.382756,4.362251 3.929457,6.098998c3.636838,4.060563 7.148267,6.001153 12.387543,6.914372c3.511429,0.603377 4.375353,0.603377 8.52079,-0.016307c1.999564,-0.285381 3.685607,-0.619684 5.197473,-1.035525c0,1.989513 0,4.280714 0,6.971448c0,14.399506 -0.14631,19.03083 -0.634008,20.384351c-0.91966,2.576582 -2.981928,5.226548 -4.988459,6.416994c-1.999564,1.190446 -2.619638,2.503198 -1.776616,3.709952c0.466797,0.652299 1.365556,0.766452 4.38232,0.538147c5.726974,-0.415841 9.774872,-2.894578 11.83714,-7.264983c0.661877,-1.402443 0.815153,-4.223638 1.024167,-18.90037c0.222948,-15.924255 0.320488,-17.457158 1.205312,-19.732052c0.536468,-1.353521 1.309819,-2.821194 1.74178,-3.220727c0.724581,-0.701222 0.773351,0.684914 0.773351,19.732052c-0.006967,21.020343 -0.188112,23.556156 -1.98563,27.600411c-0.404093,0.921373 -1.170476,2.119973 -1.706945,2.690734c-0.940561,1.00291 -1.337687,3.571338 -0.682778,4.345944c1.079904,1.255676 6.493358,-0.717529 9.447417,-3.440878c5.030262,-4.66394 5.629435,-8.520659 5.671237,-36.373836l0.020901,-16.340096l1.5258,0.171229l1.5258,0.163075l0.250816,21.370954c0.285652,24.061688 0.327455,24.412299 3.82495,29.059931c1.98563,2.625504 3.985194,4.07687 7.23884,5.21024c4.354451,1.532903 5.66427,-0.831682 2.738079,-4.933013c-3.183975,-4.460096 -3.337251,-6.164228 -3.163073,-32.566039c0.118441,-16.927165 0.118441,-16.927165 1.052035,-15.940563c1.964728,2.087358 2.340953,5.511929 2.340953,21.387261c0,19.715744 0.480731,21.591105 6.430654,25.031983c2.779882,1.589979 3.560199,1.785669 7.120399,1.801977c3.790114,0.016307 4.020029,-0.048922 4.159372,-1.206754c0.118441,-0.93768 -0.348356,-1.573672 -2.118005,-2.837502c-2.320052,-1.671517 -3.929457,-3.807797 -4.939689,-6.498531c-0.383192,-1.035525 -0.640975,-7.819437 -0.815153,-21.786794c-0.250816,-19.511901 -0.306553,-20.400659 -1.344655,-23.458311c-1.400392,-4.109485 -3.539298,-7.354674 -6.249508,-9.507261c-0.703679,-0.538147 -1.407359,-0.986603 -2.320052,-1.320906c1.121707,-0.13046 2.208578,-0.269073 3.260613,-0.448456c10.952316,-1.704132 16.741994,-3.122883 21.389064,-5.226548c9.830609,-4.427481 16.477243,-11.782155 20.079245,-22.210789c0.320488,-0.929526 0.640975,-1.81013 0.912693,-2.519506l2.772915,0.269073c14.289567,1.410597 25.820154,3.424571 34.6893,6.058229c4.863051,1.443212 5.789678,1.614441 4.654037,0.856143c-1.059003,-0.693068 -10.325275,-3.147344 -16.595684,-4.378559zm-41.900271,-0.252766c-1.623339,4.174715 -6.151969,9.539876 -9.809708,11.643541c-3.608969,2.087358 -9.266272,3.677337 -15.676024,4.435635c-4.38232,0.521839 -28.822983,0.67676 -32.856947,0.211997c-13.355973,-1.532903 -20.838662,-4.541633 -26.356622,-10.567248c-5.225341,-5.723926 -7.663834,-13.49444 -7.23884,-23.058778c0.271718,-5.984845 1.504898,-9.74372 4.730676,-14.309814c2.933158,-4.158408 6.019593,-6.726836 9.656431,-8.031434c3.044632,-1.092601 12.387543,-1.190446 24.949264,-0.244612c5.552796,0.415841 10.144129,0.415841 15.689959,0c13.139992,-0.970295 21.911598,-0.864296 25.15131,0.309842c5.092966,1.842745 9.733069,6.80022 12.519918,13.404749c1.254082,2.951654 1.497931,4.20733 1.679076,8.765271c0.250816,6.27838 -0.675811,12.94814 -2.438493,17.440851zm-66.257329,-26.956266c-7.475722,-1.532903 -11.746568,13.445518 -6.012626,21.093726c2.724145,3.628414 5.141736,4.223638 8.165467,2.022128c2.800783,-2.046589 4.319616,-5.870693 4.319616,-10.828167c0,-6.612683 -2.570868,-11.472313 -6.472456,-12.287687zm45.376865,0.896911c-7.475722,-1.532903 -11.753535,13.42921 -6.019593,21.085573c2.731112,3.628414 5.141736,4.231791 8.172434,2.013974c2.793816,-2.038435 4.319616,-5.870693 4.319616,-10.828167c0,-6.588222 -2.570868,-11.464159 -6.472456,-12.271379zm-20.107114,29.45131c-0.160244,0.603377 -0.940561,1.500288 -1.727846,1.981359c-1.992597,1.1986 -3.427824,0.782759 -5.531895,-1.45952c-1.302852,-1.377982 -1.895057,-2.103665 -2.292183,-0.660453c-0.369257,1.337213 1.950794,4.019794 3.741344,4.843322c1.644241,0.766452 2.821684,0.790913 4.605268,-0.081537c1.769649,-0.864296 3.31635,-3.188113 3.31635,-4.696554c0,-1.402443 -1.720879,-1.337213 -2.111038,0.073384zm-2.208578,-4.688401c1.135641,-1.174139 1.393424,-3.587646 0.306553,-4.867783s-3.295449,-1.084447 -4.159372,0.350611c-1.003266,1.679671 -0.466797,2.959808 0.250816,4.321482c1.11474,1.011064 2.612671,1.214907 3.602002,0.19569z" stroke-width="1.5" fill="#191919"/>
  <text stroke="#000" transform="matrix(11.208864652625186,0,0,7.734117621167308,-6871.649505533334,-1192.7442378660212) " xml:space="preserve" text-anchor="start" font-family="Euphoria, sans-serif" font-size="24" id="svg_7" y="175.326853" x="635.513246" stroke-opacity="null" stroke-width="0" fill="#000000">Acamy</text>
 </g>
</svg>